<?xml version="1.0" standalone="no"?>
<!DOCTYPE svg PUBLIC "-//W3C//DTD SVG 20010904//EN"
 "http://www.w3.org/TR/2001/REC-SVG-20010904/DTD/svg10.dtd">
<svg version="1.0" xmlns="http://www.w3.org/2000/svg"
 width="500.000000pt" height="500.000000pt" viewBox="0 0 500.000000 500.000000"
 preserveAspectRatio="xMidYMid meet">

<g transform="translate(0.000000,500.000000) scale(0.100000,-0.100000)"
fill="#000000" stroke="none">
<path d="M416 4735 c-99 -35 -166 -133 -166 -241 0 -103 44 -182 125 -225 l44
-23 3 -163 c3 -140 5 -165 21 -180 15 -16 43 -19 220 -23 l202 -5 3 -182 2
-182 -292 -227 c-161 -124 -301 -235 -310 -246 -26 -30 -23 -84 7 -113 l24
-25 255 0 256 0 2 -775 3 -774 23 -23 c22 -23 24 -23 355 -25 l332 -3 0 -137
0 -138 -66 -3 c-97 -4 -103 -14 -107 -163 -3 -88 -7 -119 -16 -119 -7 0 -34
-16 -58 -35 -98 -74 -128 -215 -70 -326 92 -176 342 -184 447 -15 24 40 30 62
33 120 6 109 -37 191 -123 237 l-45 24 0 57 0 58 59 0 c44 0 65 5 85 21 l26
20 0 194 c0 107 4 196 9 199 4 3 127 6 272 6 l264 1 0 -138 0 -138 -65 -1
c-56 -2 -67 -5 -87 -29 -21 -24 -23 -36 -23 -139 0 -110 -1 -114 -23 -120 -40
-10 -103 -73 -127 -127 -65 -153 17 -325 174 -360 71 -16 131 -5 197 34 98 59
142 175 109 293 -15 52 -85 135 -130 154 -28 12 -30 15 -30 70 l0 58 66 4
c103 6 104 8 104 244 l0 194 273 -2 272 -3 3 -132 c1 -73 -1 -134 -5 -135 -4
0 -29 -2 -54 -3 -109 -5 -119 -20 -119 -170 l0 -103 -44 -26 c-60 -35 -102
-87 -121 -148 -19 -64 -19 -91 0 -154 18 -61 73 -127 129 -156 58 -31 175 -31
232 -1 50 27 98 75 120 122 26 54 30 142 9 198 -21 55 -83 126 -125 143 -33
14 -43 39 -38 91 l3 34 69 6 c106 9 106 9 106 245 l0 194 270 0 271 0 -3 -138
-3 -137 -68 -5 c-93 -7 -97 -14 -97 -157 l0 -112 -32 -17 c-47 -23 -96 -72
-121 -119 -28 -54 -30 -174 -3 -225 26 -49 74 -98 121 -123 54 -28 174 -30
225 -3 49 26 98 74 123 121 30 57 30 173 0 231 -24 44 -75 94 -124 119 -28 15
-30 19 -27 68 l3 52 45 3 c66 3 88 10 110 32 19 19 20 34 20 215 l0 195 139 0
c149 0 192 9 210 43 8 16 12 232 14 787 l2 765 255 5 c140 3 262 9 272 13 25
13 43 64 32 95 -6 18 -108 104 -312 262 l-302 235 0 187 0 188 198 0 c258 0
242 -13 242 202 l0 156 44 26 c60 35 103 90 123 155 35 121 -18 243 -132 304
-56 30 -174 30 -230 0 -47 -25 -95 -74 -121 -123 -27 -52 -26 -172 3 -226 24
-44 75 -94 123 -119 l31 -16 -3 -97 -3 -97 -196 -3 c-259 -3 -242 12 -249
-228 l-5 -174 -714 555 c-497 387 -721 555 -738 555 -13 0 -33 -5 -44 -11 -16
-8 -1081 -832 -1374 -1062 l-50 -39 -5 182 c-7 238 13 220 -246 220 l-194 0 0
103 0 104 41 18 c81 37 128 122 129 230 0 59 -5 78 -30 122 -16 28 -45 63 -63
77 -70 53 -171 70 -251 41z m158 -186 c35 -41 34 -83 -3 -120 -22 -21 -39 -29
-66 -29 -27 0 -44 8 -66 29 -37 37 -38 79 -3 120 21 26 33 31 69 31 36 0 48
-5 69 -31z m3981 6 c18 -17 25 -35 25 -63 0 -107 -150 -129 -179 -26 -10 36 7
86 36 103 34 20 92 13 118 -14z m-1100 -736 c525 -408 952 -745 950 -749 -3
-5 -68 -6 -145 -5 l-140 3 -777 605 c-428 332 -791 612 -806 622 -21 13 -35
16 -57 9 -16 -5 -347 -256 -736 -559 -390 -302 -747 -580 -794 -616 l-87 -66
-136 -1 c-103 -1 -137 2 -137 11 0 7 8 17 17 23 10 6 439 338 953 738 513 399
936 726 937 726 2 0 433 -334 958 -741z m-187 -298 l752 -585 -2 -730 -3 -731
-1518 -3 -1517 -2 2 737 3 737 755 587 c415 323 760 584 766 580 6 -3 349
-269 762 -590z m-1763 -2963 c33 -39 32 -80 -3 -119 -40 -44 -95 -44 -135 1
-24 27 -28 39 -23 68 14 87 106 116 161 50z m707 5 c39 -35 30 -108 -17 -139
-91 -60 -190 51 -120 135 37 43 92 45 137 4z m721 -25 c16 -33 17 -40 3 -73
-38 -89 -175 -68 -176 28 -1 104 127 137 173 45z m701 17 c42 -64 -1 -145 -76
-145 -53 0 -88 35 -88 87 0 49 22 80 63 91 41 11 81 -2 101 -33z"/>
<path d="M2370 3323 c-78 -13 -184 -50 -263 -90 -165 -85 -319 -257 -385 -431
-44 -115 -56 -184 -55 -317 1 -143 23 -239 83 -360 82 -165 210 -293 375 -374
123 -61 199 -81 335 -88 339 -18 661 180 799 490 56 125 66 179 65 347 0 142
-2 162 -28 240 -82 251 -265 446 -501 535 -39 15 -103 33 -143 41 -68 13 -224
17 -282 7z m246 -174 c201 -37 385 -174 473 -353 106 -215 91 -470 -39 -668
-118 -180 -302 -286 -516 -296 -274 -13 -517 130 -634 373 -92 190 -91 391 2
585 33 68 57 101 127 171 71 70 103 94 173 128 136 66 274 86 414 60z"/>
<path d="M2425 2930 c-117 -16 -219 -63 -311 -144 -67 -59 -90 -106 -73 -147
15 -37 62 -63 98 -54 14 4 52 31 83 61 32 30 83 67 115 82 51 24 70 27 158 27
91 0 106 -3 166 -31 38 -18 89 -54 119 -83 29 -28 64 -54 78 -58 53 -13 111
49 97 105 -9 38 -119 141 -191 179 -101 54 -228 77 -339 63z"/>
<path d="M2415 2571 c-91 -24 -190 -101 -201 -157 -8 -41 14 -80 54 -95 36
-14 66 -4 110 35 78 70 163 69 247 -4 56 -48 86 -51 126 -11 42 43 39 80 -12
136 -59 64 -133 97 -222 101 -40 2 -85 0 -102 -5z"/>
<path d="M2463 2215 c-57 -24 -70 -84 -29 -131 17 -21 33 -28 59 -28 76 0 114
83 65 138 -30 32 -56 38 -95 21z"/>
</g>
</svg>
